<svg width="387" height="93" viewBox="0 0 387 93" fill="none" xmlns="http://www.w3.org/2000/svg">
<rect width="387" height="93" fill="#D9D9D9"/>
<path d="M57.7884 56L61.4105 34.1818H69.7628C71.3395 34.1818 72.6108 34.4304 73.5767 34.9276C74.5426 35.4176 75.2138 36.0888 75.5902 36.9411C75.9737 37.7933 76.0732 38.7592 75.8885 39.8388C75.7393 40.7195 75.4411 41.4759 74.9936 42.108C74.5533 42.733 74.0135 43.2443 73.3743 43.642C72.7351 44.0327 72.0497 44.3132 71.3182 44.4837L71.2756 44.6967C72.0426 44.7322 72.7457 44.9666 73.3849 45.3999C74.0241 45.8331 74.5071 46.4439 74.8338 47.2322C75.1605 48.0135 75.2351 48.9545 75.0575 50.0554C74.8658 51.1847 74.4219 52.2003 73.7259 53.1023C73.0298 53.9972 72.0852 54.7038 70.892 55.2223C69.706 55.7408 68.282 56 66.62 56H57.7884ZM62.2947 52.6974H66.5455C67.973 52.6974 69.0526 52.424 69.7841 51.8771C70.5156 51.3232 70.9524 50.6129 71.0945 49.7464C71.201 49.1001 71.1371 48.5178 70.9027 47.9993C70.6683 47.4737 70.2813 47.0618 69.7415 46.7635C69.2017 46.4581 68.527 46.3054 67.7173 46.3054H63.3494L62.2947 52.6974ZM63.8395 43.4609H67.7493C68.4311 43.4609 69.0632 43.3366 69.6456 43.0881C70.2351 42.8324 70.7251 42.4737 71.1158 42.0121C71.5135 41.5433 71.7585 40.9893 71.8509 40.3501C72 39.505 71.8224 38.8089 71.3182 38.2621C70.8139 37.7152 69.983 37.4418 68.8253 37.4418H64.8196L63.8395 43.4609ZM82.0009 56.3303C80.964 56.3303 80.062 56.1456 79.2949 55.7763C78.5279 55.3999 77.9632 54.8459 77.601 54.1143C77.2459 53.3828 77.1571 52.4808 77.3347 51.4084C77.4909 50.4851 77.7892 49.7216 78.2296 49.1179C78.677 48.5142 79.2239 48.0312 79.8702 47.669C80.5236 47.2997 81.2338 47.0227 82.0009 46.8381C82.775 46.6534 83.5634 46.5185 84.3659 46.4332C85.3461 46.3338 86.138 46.2415 86.7417 46.1562C87.3525 46.071 87.8105 45.9432 88.1159 45.7727C88.4213 45.5952 88.606 45.3253 88.6699 44.9631V44.8991C88.7978 44.0966 88.6699 43.4751 88.2864 43.0348C87.9029 42.5945 87.2637 42.3743 86.3688 42.3743C85.4313 42.3743 84.6429 42.5803 84.0037 42.9922C83.3645 43.4041 82.8993 43.8906 82.6081 44.4517L79.1138 43.9403C79.5542 42.946 80.1578 42.1151 80.9249 41.4474C81.6919 40.7727 82.5762 40.2685 83.5776 39.9347C84.5861 39.5938 85.6621 39.4233 86.8056 39.4233C87.5868 39.4233 88.3503 39.5156 89.0961 39.7003C89.8489 39.8849 90.513 40.1903 91.0882 40.6165C91.6706 41.0355 92.0968 41.6072 92.3667 42.3317C92.6436 43.0561 92.6898 43.9616 92.5051 45.0483L90.6834 56H86.976L87.3596 53.7521H87.2317C86.9263 54.2067 86.5286 54.6328 86.0385 55.0305C85.5485 55.4212 84.9661 55.7372 84.2914 55.9787C83.6167 56.2131 82.8532 56.3303 82.0009 56.3303ZM83.4604 53.4964C84.2346 53.4964 84.9306 53.3437 85.5485 53.0384C86.1664 52.7259 86.6742 52.3139 87.0719 51.8026C87.4696 51.2912 87.7182 50.7337 87.8176 50.13L88.1373 48.2017C87.9952 48.3011 87.775 48.3935 87.4767 48.4787C87.1784 48.5639 86.8446 48.6385 86.4753 48.7024C86.1131 48.7663 85.7544 48.8232 85.3993 48.8729C85.0442 48.9226 84.7388 48.9652 84.4831 49.0007C83.8936 49.0788 83.3539 49.2067 82.8638 49.3842C82.3809 49.5618 81.9796 49.8104 81.66 50.13C81.3475 50.4425 81.1522 50.8473 81.074 51.3445C80.9604 52.0476 81.1273 52.5838 81.5748 52.9531C82.0222 53.3153 82.6507 53.4964 83.4604 53.4964ZM101.656 56.3196C100.023 56.3196 98.6806 55.9609 97.6294 55.2436C96.5783 54.5263 95.8432 53.5355 95.4242 52.2713C95.0123 51 94.9448 49.5369 95.2218 47.8821C95.4917 46.2202 96.0492 44.7536 96.8944 43.4822C97.7466 42.2038 98.8191 41.2095 100.112 40.4993C101.404 39.782 102.85 39.4233 104.448 39.4233C105.776 39.4233 106.909 39.6683 107.846 40.1584C108.791 40.6413 109.494 41.3267 109.955 42.2145C110.424 43.0952 110.605 44.125 110.499 45.304H106.802C106.788 44.5156 106.543 43.8587 106.067 43.3331C105.591 42.8004 104.895 42.5341 103.979 42.5341C103.183 42.5341 102.452 42.7472 101.784 43.1733C101.117 43.5923 100.552 44.196 100.09 44.9844C99.6287 45.7727 99.3091 46.7173 99.1316 47.8182C98.9469 48.9332 98.9505 49.892 99.1422 50.6946C99.3411 51.4901 99.6998 52.1044 100.218 52.5376C100.744 52.9638 101.408 53.1768 102.21 53.1768C102.779 53.1768 103.308 53.0703 103.798 52.8572C104.288 52.6371 104.718 52.321 105.087 51.9091C105.463 51.4972 105.758 50.9964 105.971 50.407H109.657C109.366 51.5646 108.847 52.5909 108.102 53.4858C107.363 54.3736 106.447 55.0696 105.353 55.5739C104.259 56.071 103.027 56.3196 101.656 56.3196ZM116.233 50.8651L116.989 46.2095H117.607L124.607 39.6364H129.113L120.548 47.6903H119.759L116.233 50.8651ZM111.876 56L115.498 34.1818H119.354L115.732 56H111.876ZM122.146 56L118.055 48.5533L121.112 45.8366L126.759 56H122.146ZM135.484 56.3196C133.843 56.3196 132.487 55.9787 131.414 55.2969C130.342 54.608 129.589 53.6349 129.156 52.3778C128.729 51.1136 128.658 49.6257 128.942 47.9141C129.219 46.2308 129.784 44.7536 130.636 43.4822C131.489 42.2038 132.554 41.2095 133.832 40.4993C135.118 39.782 136.538 39.4233 138.094 39.4233C139.102 39.4233 140.029 39.5866 140.874 39.9134C141.719 40.233 142.433 40.7301 143.016 41.4048C143.598 42.0795 143.999 42.9389 144.219 43.983C144.44 45.0199 144.429 46.2557 144.188 47.6903L144.006 48.8729H130.583L130.999 46.2734H140.714C140.842 45.5348 140.8 44.8778 140.587 44.3026C140.374 43.7202 140.018 43.2621 139.521 42.9283C139.024 42.5945 138.403 42.4276 137.657 42.4276C136.897 42.4276 136.187 42.6229 135.526 43.0135C134.873 43.397 134.322 43.8942 133.875 44.505C133.428 45.1158 133.143 45.7585 133.023 46.4332L132.586 48.9261C132.43 49.9489 132.465 50.7834 132.692 51.4297C132.92 52.076 133.317 52.5518 133.886 52.8572C134.454 53.1626 135.171 53.3153 136.038 53.3153C136.606 53.3153 137.131 53.2372 137.614 53.081C138.097 52.9247 138.527 52.6903 138.903 52.3778C139.287 52.0582 139.607 51.6676 139.862 51.206L143.388 51.6108C142.998 52.5625 142.426 53.3935 141.673 54.1037C140.92 54.8068 140.018 55.3537 138.967 55.7443C137.923 56.1278 136.762 56.3196 135.484 56.3196ZM151.549 46.4119L149.972 56H146.105L148.832 39.6364H152.529L152.06 42.4169H152.263C152.774 41.5007 153.491 40.7727 154.415 40.233C155.338 39.6932 156.414 39.4233 157.643 39.4233C158.758 39.4233 159.695 39.6648 160.455 40.1477C161.215 40.6236 161.755 41.3232 162.075 42.2464C162.394 43.1626 162.444 44.2741 162.224 45.581L160.477 56H156.62L158.25 46.1776C158.435 45.0909 158.296 44.2386 157.835 43.6207C157.38 42.9957 156.648 42.6832 155.64 42.6832C154.965 42.6832 154.344 42.8324 153.776 43.1307C153.207 43.4219 152.728 43.8445 152.337 44.3984C151.954 44.9524 151.691 45.6236 151.549 46.4119ZM170.427 56.2876C169.141 56.2876 168.044 55.9574 167.135 55.2969C166.226 54.6364 165.58 53.6776 165.196 52.4205C164.82 51.1634 164.777 49.6364 165.068 47.8395C165.374 46.0213 165.931 44.4872 166.741 43.2372C167.55 41.9801 168.516 41.032 169.638 40.3928C170.768 39.7464 171.961 39.4233 173.218 39.4233C174.184 39.4233 174.947 39.5866 175.509 39.9134C176.077 40.233 176.503 40.62 176.787 41.0746C177.071 41.522 177.281 41.9446 177.415 42.3423H177.575L178.928 34.1818H182.795L179.173 56H175.381L175.817 53.4219H175.583C175.313 53.8196 174.955 54.2422 174.507 54.6896C174.06 55.13 173.502 55.5064 172.835 55.8189C172.167 56.1314 171.364 56.2876 170.427 56.2876ZM171.961 53.1236C172.785 53.1236 173.523 52.9034 174.177 52.4631C174.837 52.0156 175.388 51.3942 175.828 50.5987C176.268 49.8033 176.577 48.8764 176.755 47.8182C176.933 46.7599 176.933 45.8402 176.755 45.0589C176.577 44.2777 176.233 43.6705 175.722 43.2372C175.21 42.804 174.539 42.5874 173.708 42.5874C172.856 42.5874 172.107 42.8111 171.46 43.2585C170.821 43.706 170.295 44.3239 169.884 45.1122C169.472 45.9006 169.18 46.8026 169.01 47.8182C168.839 48.8409 168.829 49.7536 168.978 50.5561C169.134 51.3516 169.457 51.9801 169.947 52.4418C170.445 52.8963 171.116 53.1236 171.961 53.1236ZM190.913 56L194.536 34.1818H202.717C204.393 34.1818 205.754 34.473 206.798 35.0554C207.842 35.6378 208.57 36.4545 208.982 37.5057C209.393 38.5497 209.482 39.7678 209.248 41.1598C209.021 42.5518 208.523 43.7628 207.756 44.7926C206.996 45.8153 205.991 46.6072 204.741 47.1683C203.499 47.7294 202.039 48.0099 200.363 48.0099H194.536L195.089 44.7287H200.395C201.375 44.7287 202.199 44.5937 202.866 44.3239C203.534 44.0469 204.06 43.6456 204.443 43.12C204.834 42.5874 205.093 41.9339 205.221 41.1598C205.342 40.3857 205.295 39.7251 205.082 39.1783C204.876 38.6243 204.482 38.2053 203.9 37.9212C203.325 37.63 202.547 37.4844 201.567 37.4844H197.945L194.866 56H190.913ZM203.825 46.1136L207.586 56H203.175L199.511 46.1136H203.825ZM217.318 56.3196C215.706 56.3196 214.363 55.9645 213.291 55.2543C212.225 54.544 211.476 53.5462 211.043 52.2607C210.61 50.9751 210.532 49.4837 210.809 47.7862C211.086 46.1101 211.64 44.6435 212.471 43.3864C213.309 42.1293 214.363 41.1562 215.635 40.4673C216.913 39.7713 218.344 39.4233 219.928 39.4233C221.54 39.4233 222.879 39.782 223.944 40.4993C225.01 41.2095 225.759 42.2074 226.192 43.4929C226.632 44.7784 226.714 46.277 226.437 47.9886C226.167 49.6577 225.61 51.1172 224.765 52.3672C223.926 53.6172 222.872 54.5902 221.6 55.2862C220.329 55.9751 218.902 56.3196 217.318 56.3196ZM217.637 53.2301C218.532 53.2301 219.317 52.9886 219.992 52.5057C220.674 52.0156 221.231 51.3587 221.664 50.5348C222.105 49.7038 222.41 48.7805 222.581 47.7649C222.737 46.7848 222.74 45.897 222.591 45.1016C222.442 44.299 222.123 43.6634 221.632 43.1946C221.15 42.7187 220.478 42.4808 219.619 42.4808C218.724 42.4808 217.932 42.7294 217.243 43.2266C216.561 43.7166 216.004 44.3771 215.571 45.2081C215.137 46.032 214.839 46.9517 214.676 47.9673C214.512 48.9474 214.505 49.8352 214.654 50.6307C214.804 51.4261 215.123 52.0582 215.613 52.527C216.103 52.9957 216.778 53.2301 217.637 53.2301ZM233.056 56.3303C232.019 56.3303 231.117 56.1456 230.35 55.7763C229.583 55.3999 229.018 54.8459 228.656 54.1143C228.301 53.3828 228.212 52.4808 228.389 51.4084C228.546 50.4851 228.844 49.7216 229.284 49.1179C229.732 48.5142 230.279 48.0312 230.925 47.669C231.578 47.2997 232.289 47.0227 233.056 46.8381C233.83 46.6534 234.618 46.5185 235.421 46.4332C236.401 46.3338 237.193 46.2415 237.796 46.1562C238.407 46.071 238.865 45.9432 239.171 45.7727C239.476 45.5952 239.661 45.3253 239.725 44.9631V44.8991C239.852 44.0966 239.725 43.4751 239.341 43.0348C238.958 42.5945 238.318 42.3743 237.423 42.3743C236.486 42.3743 235.698 42.5803 235.058 42.9922C234.419 43.4041 233.954 43.8906 233.663 44.4517L230.169 43.9403C230.609 42.946 231.213 42.1151 231.98 41.4474C232.747 40.7727 233.631 40.2685 234.632 39.9347C235.641 39.5938 236.717 39.4233 237.86 39.4233C238.642 39.4233 239.405 39.5156 240.151 39.7003C240.904 39.8849 241.568 40.1903 242.143 40.6165C242.725 41.0355 243.151 41.6072 243.421 42.3317C243.698 43.0561 243.744 43.9616 243.56 45.0483L241.738 56H238.031L238.414 53.7521H238.286C237.981 54.2067 237.583 54.6328 237.093 55.0305C236.603 55.4212 236.021 55.7372 235.346 55.9787C234.671 56.2131 233.908 56.3303 233.056 56.3303ZM234.515 53.4964C235.289 53.4964 235.985 53.3437 236.603 53.0384C237.221 52.7259 237.729 52.3139 238.127 51.8026C238.524 51.2912 238.773 50.7337 238.872 50.13L239.192 48.2017C239.05 48.3011 238.83 48.3935 238.531 48.4787C238.233 48.5639 237.899 48.6385 237.53 48.7024C237.168 48.7663 236.809 48.8232 236.454 48.8729C236.099 48.9226 235.794 48.9652 235.538 49.0007C234.948 49.0788 234.409 49.2067 233.919 49.3842C233.436 49.5618 233.034 49.8104 232.715 50.13C232.402 50.4425 232.207 50.8473 232.129 51.3445C232.015 52.0476 232.182 52.5838 232.629 52.9531C233.077 53.3153 233.705 53.4964 234.515 53.4964ZM251.667 56.2876C250.382 56.2876 249.284 55.9574 248.375 55.2969C247.466 54.6364 246.82 53.6776 246.436 52.4205C246.06 51.1634 246.017 49.6364 246.308 47.8395C246.614 46.0213 247.171 44.4872 247.981 43.2372C248.791 41.9801 249.757 41.032 250.879 40.3928C252.008 39.7464 253.201 39.4233 254.458 39.4233C255.424 39.4233 256.188 39.5866 256.749 39.9134C257.317 40.233 257.743 40.62 258.027 41.0746C258.311 41.522 258.521 41.9446 258.656 42.3423H258.816L260.169 34.1818H264.036L260.414 56H256.621L257.058 53.4219H256.823C256.553 53.8196 256.195 54.2422 255.747 54.6896C255.3 55.13 254.742 55.5064 254.075 55.8189C253.407 56.1314 252.605 56.2876 251.667 56.2876ZM253.201 53.1236C254.025 53.1236 254.764 52.9034 255.417 52.4631C256.078 52.0156 256.628 51.3942 257.068 50.5987C257.509 49.8033 257.818 48.8764 257.995 47.8182C258.173 46.7599 258.173 45.8402 257.995 45.0589C257.818 44.2777 257.473 43.6705 256.962 43.2372C256.45 42.804 255.779 42.5874 254.948 42.5874C254.096 42.5874 253.347 42.8111 252.7 43.2585C252.061 43.706 251.536 44.3239 251.124 45.1122C250.712 45.9006 250.421 46.8026 250.25 47.8182C250.08 48.8409 250.069 49.7536 250.218 50.5561C250.374 51.3516 250.698 51.9801 251.188 52.4418C251.685 52.8963 252.356 53.1236 253.201 53.1236ZM268.334 34.1818H273.171L277.038 49.9915H277.294L286.381 34.1818H291.218L287.596 56H283.803L286.296 41.0107H286.104L277.581 55.9361H274.758L271.221 40.9787H271.019L268.505 56H264.712L268.334 34.1818ZM296.395 56.3303C295.358 56.3303 294.456 56.1456 293.689 55.7763C292.922 55.3999 292.358 54.8459 291.996 54.1143C291.64 53.3828 291.552 52.4808 291.729 51.4084C291.885 50.4851 292.184 49.7216 292.624 49.1179C293.072 48.5142 293.618 48.0312 294.265 47.669C294.918 47.2997 295.628 47.0227 296.395 46.8381C297.17 46.6534 297.958 46.5185 298.76 46.4332C299.741 46.3338 300.532 46.2415 301.136 46.1562C301.747 46.071 302.205 45.9432 302.51 45.7727C302.816 45.5952 303.001 45.3253 303.064 44.9631V44.8991C303.192 44.0966 303.064 43.4751 302.681 43.0348C302.297 42.5945 301.658 42.3743 300.763 42.3743C299.826 42.3743 299.037 42.5803 298.398 42.9922C297.759 43.4041 297.294 43.8906 297.003 44.4517L293.508 43.9403C293.949 42.946 294.552 42.1151 295.319 41.4474C296.086 40.7727 296.971 40.2685 297.972 39.9347C298.981 39.5938 300.057 39.4233 301.2 39.4233C301.981 39.4233 302.745 39.5156 303.491 39.7003C304.243 39.8849 304.907 40.1903 305.483 40.6165C306.065 41.0355 306.491 41.6072 306.761 42.3317C307.038 43.0561 307.084 43.9616 306.9 45.0483L305.078 56H301.371L301.754 53.7521H301.626C301.321 54.2067 300.923 54.6328 300.433 55.0305C299.943 55.4212 299.361 55.7372 298.686 55.9787C298.011 56.2131 297.248 56.3303 296.395 56.3303ZM297.855 53.4964C298.629 53.4964 299.325 53.3437 299.943 53.0384C300.561 52.7259 301.069 52.3139 301.466 51.8026C301.864 51.2912 302.113 50.7337 302.212 50.13L302.532 48.2017C302.39 48.3011 302.17 48.3935 301.871 48.4787C301.573 48.5639 301.239 48.6385 300.87 48.7024C300.508 48.7663 300.149 48.8232 299.794 48.8729C299.439 48.9226 299.133 48.9652 298.878 49.0007C298.288 49.0788 297.748 49.2067 297.258 49.3842C296.775 49.5618 296.374 49.8104 296.055 50.13C295.742 50.4425 295.547 50.8473 295.469 51.3445C295.355 52.0476 295.522 52.5838 295.969 52.9531C296.417 53.3153 297.045 53.4964 297.855 53.4964ZM307.944 62.1364L311.715 39.6364H315.508L315.071 42.3423H315.295C315.55 41.9446 315.895 41.522 316.328 41.0746C316.768 40.62 317.326 40.233 318.001 39.9134C318.675 39.5866 319.496 39.4233 320.461 39.4233C321.719 39.4233 322.802 39.7464 323.711 40.3928C324.62 41.032 325.27 41.9801 325.66 43.2372C326.058 44.4872 326.108 46.0213 325.809 47.8395C325.511 49.6364 324.961 51.1634 324.158 52.4205C323.356 53.6776 322.393 54.6364 321.271 55.2969C320.149 55.9574 318.945 56.2876 317.66 56.2876C316.722 56.2876 315.966 56.1314 315.39 55.8189C314.822 55.5064 314.393 55.13 314.101 54.6896C313.81 54.2422 313.594 53.8196 313.452 53.4219H313.281L311.832 62.1364H307.944ZM314.133 47.8182C313.963 48.8764 313.959 49.8033 314.123 50.5987C314.293 51.3942 314.631 52.0156 315.135 52.4631C315.639 52.9034 316.3 53.1236 317.116 53.1236C317.969 53.1236 318.714 52.8963 319.354 52.4418C320 51.9801 320.536 51.3516 320.962 50.5561C321.395 49.7536 321.701 48.8409 321.878 47.8182C322.042 46.8026 322.042 45.9006 321.878 45.1122C321.715 44.3239 321.385 43.706 320.888 43.2585C320.39 42.8111 319.716 42.5874 318.863 42.5874C318.032 42.5874 317.29 42.804 316.637 43.2372C315.991 43.6705 315.454 44.2777 315.028 45.0589C314.602 45.8402 314.304 46.7599 314.133 47.8182Z" fill="black"/>
</svg>
