<svg width="141" height="23" viewBox="0 0 141 23" fill="none" xmlns="http://www.w3.org/2000/svg">
<path d="M13.5065 0.999999H18.9365C19.1565 0.999999 19.3465 1.08 19.5065 1.24C19.6665 1.4 19.7465 1.59 19.7465 1.81V21.19C19.7465 21.41 19.6665 21.6 19.5065 21.76C19.3465 21.92 19.1565 22 18.9365 22H14.1965C13.6765 22 13.2665 21.77 12.9665 21.31L7.89648 13.66V21.19C7.89648 21.41 7.81648 21.6 7.65649 21.76C7.49648 21.92 7.30648 22 7.08648 22H1.65648C1.43648 22 1.24648 21.92 1.08648 21.76C0.926485 21.6 0.846485 21.41 0.846485 21.19V1.81C0.846485 1.59 0.926485 1.4 1.08648 1.24C1.24648 1.08 1.43648 0.999999 1.65648 0.999999H6.39648C6.95648 0.999999 7.36648 1.23 7.62648 1.69L12.6965 10V1.81C12.6965 1.59 12.7765 1.4 12.9365 1.24C13.0965 1.08 13.2865 0.999999 13.5065 0.999999ZM48.2418 8.98V14.02C48.2418 15.64 48.9818 16.45 50.4618 16.45C51.6018 16.45 52.3518 15.91 52.7118 14.83C52.8118 14.49 52.9318 14.26 53.0718 14.14C53.2318 14.02 53.4818 13.96 53.8218 13.96H59.9418C60.1218 13.96 60.2718 14.03 60.3918 14.17C60.5318 14.29 60.6018 14.44 60.6018 14.62C60.6018 16.36 60.1018 17.82 59.1018 19C57.2618 21.2 54.3918 22.3 50.4918 22.3C47.4318 22.3 44.9918 21.63 43.1718 20.29C41.3518 18.93 40.4418 16.85 40.4418 14.05V8.95C40.4418 6.21 41.3718 4.15 43.2318 2.77C45.0918 1.39 47.5118 0.699999 50.4918 0.699999C54.3918 0.699999 57.2618 1.8 59.1018 4C60.1018 5.18 60.6018 6.64 60.6018 8.38C60.6018 8.56 60.5318 8.72 60.3918 8.86C60.2718 8.98 60.1218 9.04 59.9418 9.04H53.8218C53.5018 9.04 53.2618 8.98 53.1018 8.86C52.9618 8.74 52.8318 8.51 52.7118 8.17C52.3318 7.09 51.5818 6.55 50.4618 6.55C48.9818 6.55 48.2418 7.36 48.2418 8.98ZM93.5163 0.999999H98.9463C99.1663 0.999999 99.3563 1.08 99.5163 1.24C99.6763 1.4 99.7563 1.59 99.7563 1.81V21.19C99.7563 21.41 99.6763 21.6 99.5163 21.76C99.3563 21.92 99.1663 22 98.9463 22H94.2063C93.6863 22 93.2763 21.77 92.9763 21.31L87.9063 13.66V21.19C87.9063 21.41 87.8263 21.6 87.6663 21.76C87.5063 21.92 87.3163 22 87.0963 22H81.6663C81.4463 22 81.2563 21.92 81.0963 21.76C80.9363 21.6 80.8563 21.41 80.8563 21.19V1.81C80.8563 1.59 80.9363 1.4 81.0963 1.24C81.2563 1.08 81.4463 0.999999 81.6663 0.999999H86.4062C86.9663 0.999999 87.3763 1.23 87.6363 1.69L92.7063 10V1.81C92.7063 1.59 92.7863 1.4 92.9463 1.24C93.1063 1.08 93.2963 0.999999 93.5163 0.999999ZM140.702 21.01C140.762 21.11 140.792 21.24 140.792 21.4C140.792 21.54 140.722 21.68 140.582 21.82C140.462 21.94 140.312 22 140.132 22H133.292C132.712 22 132.302 21.77 132.062 21.31L128.402 14.77V21.19C128.402 21.41 128.322 21.6 128.162 21.76C128.002 21.92 127.812 22 127.592 22H121.862C121.642 22 121.452 21.92 121.292 21.76C121.132 21.6 121.052 21.41 121.052 21.19V1.81C121.052 1.59 121.132 1.4 121.292 1.24C121.452 1.08 121.642 0.999999 121.862 0.999999H127.592C127.812 0.999999 128.002 1.08 128.162 1.24C128.322 1.4 128.402 1.59 128.402 1.81V7.75L131.792 1.66C132.012 1.22 132.412 0.999999 132.992 0.999999H139.622C139.802 0.999999 139.952 1.07 140.072 1.21C140.212 1.33 140.282 1.47 140.282 1.63C140.282 1.77 140.252 1.89 140.192 1.99L134.792 11.05L140.702 21.01Z" fill="white"/>
</svg>
