<svg width="1361" height="1130" viewBox="0 0 1361 1130" fill="none" xmlns="http://www.w3.org/2000/svg">
<path d="M254 1.5H883.5C997.5 1.5 1107.5 40.5001 1107.5 133.5C1107.5 236 1034.5 273.5 883.5 273.5C883.5 273.5 401 273.5 254 273.5C107 273.5 1.5 316 1.5 425.5C1.5 535 128.5 568.223 254 572.5C379.5 576.777 832 572.5 1070 572.5C1308 572.5 1359 639.5 1359 703C1359 766.5 1316.5 843.5 1070 843.5C1070 843.5 353.5 843.5 254 843.5C154.5 843.5 1.5 862 1.5 982.5C1.5 1103 116.5 1128 254 1128C391.5 1128 1070 1128 1070 1128" stroke="white" stroke-width="2.5"/>
</svg>
